<?xml version="1.0" encoding="UTF-8"?>
<svg version="1.1" xmlns="http://www.w3.org/2000/svg" width="960" height="960">
<path d="M0 0 C316.8 0 633.6 0 960 0 C960 316.8 960 633.6 960 960 C643.2 960 326.4 960 0 960 C0 643.2 0 326.4 0 0 Z " fill="#F1F1F1" transform="translate(0,0)"/>
<path d="M0 0 C26.07 0 52.14 0 79 0 C79 97.68 79 195.36 79 296 C91.36583529 288.19040433 91.36583529 288.19040433 103.73046875 280.37890625 C104.49037109 279.89873047 105.25027344 279.41855469 106.03320312 278.92382812 C107.51245616 277.98906895 108.99161795 277.05416538 110.47070312 276.11914062 C111.21642578 275.64798828 111.96214844 275.17683594 112.73046875 274.69140625 C113.36364014 274.29123291 113.99681152 273.89105957 114.64916992 273.47875977 C115.42494385 272.99076904 116.20071777 272.50277832 117 272 C117.54687375 271.59799252 118.0937475 271.19598503 118.65719318 270.7817955 C123.9242833 267.10276956 127.82359498 266.29201456 134.16992188 266.43237305 C135.04891144 266.43164291 135.927901 266.43091278 136.83352661 266.43016052 C139.71258227 266.4336187 142.5899802 266.4723948 145.46875 266.51171875 C147.47512936 266.5210532 149.48152017 266.52816632 151.48791504 266.53315735 C156.74890027 266.55217735 162.00918681 266.6012351 167.26989746 266.65667725 C172.64598135 266.7079777 178.02217899 266.73069441 183.3984375 266.75585938 C193.93259734 266.80935865 204.46624039 266.89461078 215 267 C215.54500656 268.09042099 216.09001312 269.18084198 216.65153503 270.30430603 C217.37600329 271.75357245 218.10047554 273.20283687 218.82495117 274.65209961 C219.18304619 275.36858421 219.5411412 276.08506882 219.91008759 276.82326508 C221.86831434 280.74034902 223.83038034 284.65542645 225.80078125 288.56640625 C231.94200249 300.77118736 237.91869766 313.04728472 243.76611328 325.39550781 C244.92223331 327.8358498 246.08380614 330.27352897 247.24609375 332.7109375 C247.89369525 334.07790429 248.54086604 335.44507526 249.1875 336.8125 C249.73792969 337.97394531 250.28835938 339.13539063 250.85546875 340.33203125 C252 343 252 343 252 345 C168.84 345 85.68 345 0 345 C0 231.15 0 117.3 0 0 Z " fill="#050507" transform="translate(226,312)"/>
<path d="M0 0 C0.66 0.33 1.32 0.66 2 1 C-0.62123679 8.43883007 -3.24681897 15.87612064 -5.875 23.3125 C-6.45856766 24.96390991 -6.45856766 24.96390991 -7.05392456 26.64868164 C-11.84052294 40.18527543 -16.68703566 53.69062163 -21.73925781 67.13037109 C-24.73923558 75.16094144 -27.44223775 83.2717326 -30.09716797 91.421875 C-32.50643457 98.73410313 -35.27091928 105.84775152 -38.20263672 112.96411133 C-40.57435679 118.77417619 -42.54973095 124.62556156 -44.3527832 130.63354492 C-45.63557989 134.896686 -47.11531202 138.98674781 -48.82421875 143.09375 C-50.52719523 147.30310049 -52.10757739 151.55568669 -53.6875 155.8125 C-53.9973584 156.63790283 -54.3072168 157.46330566 -54.62646484 158.3137207 C-56.05852769 162.18534565 -57.37611061 165.89896706 -58 170 C-58.66 170 -59.32 170 -60 170 C-60.2673999 169.42967041 -60.5347998 168.85934082 -60.81030273 168.27172852 C-62.01714167 165.70093338 -63.2272751 163.13170278 -64.4375 160.5625 C-64.85837891 159.66466797 -65.27925781 158.76683594 -65.71289062 157.84179688 C-66.11572266 156.98779297 -66.51855469 156.13378906 -66.93359375 155.25390625 C-67.30540771 154.46314697 -67.67722168 153.6723877 -68.06030273 152.85766602 C-68.86104789 151.03502006 -68.86104789 151.03502006 -70 150 C-83.0857603 176.76759083 -83.0857603 176.76759083 -95.99731445 203.61938477 C-100.11926115 212.27031545 -104.29758292 220.89372768 -108.4776001 229.51669312 C-112.55767722 237.93417375 -116.60883013 246.36428468 -120.625 254.8125 C-124.48590212 262.92499076 -128.46558813 270.97248222 -132.5 279 C-136.979696 287.91358065 -141.36403462 296.86399104 -145.64916992 305.87255859 C-149.50335916 313.97309623 -153.39832722 322.05333018 -157.3125 330.125 C-157.63610504 330.79241211 -157.95971008 331.45982422 -158.29312134 332.14746094 C-168.14411536 352.45662135 -178.07940959 372.72479335 -188 393 C-205.82 393 -223.64 393 -242 393 C-245.63 385.41 -249.26 377.82 -253 370 C-255.46710604 364.85406963 -257.93591559 359.70898736 -260.40795898 354.56542969 C-263.05315328 349.06030208 -265.69197971 343.5522632 -268.3203125 338.0390625 C-268.86308838 336.90259277 -269.40586426 335.76612305 -269.96508789 334.59521484 C-271.00532686 332.41680214 -272.04367331 330.23748439 -273.07983398 328.05712891 C-273.54977783 327.07405762 -274.01972168 326.09098633 -274.50390625 325.078125 C-274.91455322 324.21606445 -275.3252002 323.35400391 -275.74829102 322.46582031 C-276.99564047 319.91783776 -276.99564047 319.91783776 -278.6875 317.30224609 C-280 315 -280 315 -279.49609375 313.0859375 C-277.42738166 310.20162351 -275.28293467 307.3929549 -273.0625 304.625 C-272.05982173 303.362038 -271.05721958 302.09901555 -270.0546875 300.8359375 C-269.28850098 299.87445801 -269.28850098 299.87445801 -268.50683594 298.89355469 C-266.22162459 296.02186006 -263.95400235 293.1364685 -261.6875 290.25 C-261.24220947 289.68361816 -260.79691895 289.11723633 -260.33813477 288.53369141 C-256.54241599 283.70180613 -252.77010567 278.85188203 -249 274 C-247.23360555 271.72867994 -245.46698057 269.45753951 -243.70019531 267.18652344 C-242.58944429 265.75805041 -241.47938768 264.32903709 -240.37011719 262.89941406 C-238.87435583 260.97255992 -237.37512974 259.04845402 -235.875 257.125 C-235.43800781 256.56039063 -235.00101563 255.99578125 -234.55078125 255.4140625 C-232.19728247 252.40394493 -229.72281405 249.67553551 -227 247 C-225.15692045 250.59926342 -223.32723483 254.20517031 -221.5 257.8125 C-220.71302734 259.34874023 -220.71302734 259.34874023 -219.91015625 260.91601562 C-219.41386719 261.89892578 -218.91757812 262.88183594 -218.40625 263.89453125 C-217.94541016 264.80050049 -217.48457031 265.70646973 -217.00976562 266.63989258 C-216 269 -216 269 -216 272 C-215.34 272 -214.68 272 -214 272 C-213.92378418 271.35788574 -213.84756836 270.71577148 -213.76904297 270.05419922 C-212.68680842 265.75618203 -210.70709905 262.06682092 -208.6953125 258.1328125 C-208.2603244 257.26986069 -207.8253363 256.40690887 -207.37716675 255.51780701 C-206.44685417 253.67335931 -205.51392179 251.83023109 -204.57861328 249.98831177 C-202.14660264 245.19776343 -199.73448672 240.39721079 -197.3203125 235.59765625 C-196.61276825 234.1928022 -196.61276825 234.1928022 -195.89093018 232.75956726 C-191.23657201 223.50783574 -186.75711362 214.18019659 -182.33496094 204.81542969 C-179.90631545 199.69342168 -177.44646205 194.58638188 -174.98730469 189.47897339 C-174.15734794 187.75470418 -173.32864839 186.02983 -172.5 184.30493164 C-171.48150169 182.18844481 -170.45870746 180.07401865 -169.43115234 177.96191406 C-168.50755299 176.05043207 -167.60033779 174.13090532 -166.71337891 172.20214844 C-164.18102417 166.81951123 -161.52641411 162.86698024 -157.125 158.875 C-153.11556149 155.11812454 -149.41050462 151.24739549 -145.82128906 147.08398438 C-142.74920201 143.568792 -139.52530434 140.19865001 -136.3125 136.8125 C-134.90841892 135.32593181 -133.50477775 133.838948 -132.1015625 132.3515625 C-131.41223633 131.62098633 -130.72291016 130.89041016 -130.01269531 130.13769531 C-127.05804328 126.99954233 -124.11733731 123.84882156 -121.1875 120.6875 C-120.7025708 120.16712158 -120.2176416 119.64674316 -119.71801758 119.1105957 C-117.31446294 116.51065674 -115.05996464 113.881213 -113 111 C-114.00675781 110.96261719 -115.01351562 110.92523438 -116.05078125 110.88671875 C-124.89782087 110.49488934 -133.49360071 109.57746318 -142.22363281 108.08886719 C-147.76054015 107.15418395 -153.23257167 106.56847845 -158.84765625 106.30859375 C-161 106 -161 106 -163 104 C-162.37770508 103.61368408 -161.75541016 103.22736816 -161.11425781 102.8293457 C-149.48691845 95.60439437 -137.8970498 88.33409917 -126.43798828 80.84472656 C-117.59784356 75.07092458 -108.68429094 69.41420745 -99.76904297 63.75732422 C-95.23989245 60.88297882 -90.71347134 58.00434802 -86.1875 55.125 C-85.2900708 54.55418701 -84.3926416 53.98337402 -83.46801758 53.39526367 C-76.40757288 48.90191239 -69.35916434 44.38992223 -62.3125 39.875 C-54.24315037 34.70559213 -46.15910085 29.56094173 -38.05249023 24.45019531 C-31.81934672 20.51995051 -25.59447841 16.57683543 -19.375 12.625 C-18.47434814 12.05378418 -17.57369629 11.48256836 -16.64575195 10.89404297 C-11.04789134 7.33446863 -5.50332685 3.70406565 0 0 Z " fill="#040507" transform="translate(775,264)"/>
<path d="M0 0 C27.72 0 55.44 0 84 0 C94.32591494 19.504506 94.32591494 19.504506 98.4375 28.25 C99.12162964 29.69161499 99.12162964 29.69161499 99.81958008 31.16235352 C101.21640856 34.10666066 102.60848639 37.05317797 104 40 C105.72653571 43.6470855 107.45587845 47.29282661 109.1875 50.9375 C109.80588745 52.23977539 109.80588745 52.23977539 110.43676758 53.56835938 C113.25208043 59.4787747 116.15135399 65.34165828 119.10229492 71.18530273 C121.83887005 76.62463402 124.42730102 82.12740883 127.00048828 87.64550781 C129.25831631 92.47000209 131.59915765 97.24520676 134 102 C136.75692889 107.46001151 139.41491968 112.9565722 142 118.5 C144.6527709 124.1856267 147.37391794 129.8296161 150.1875 135.4375 C150.68540039 136.43076294 150.68540039 136.43076294 151.19335938 137.4440918 C152.6509865 140.34364515 154.12159077 143.23493809 155.61328125 146.1171875 C156.07089844 147.00664062 156.52851562 147.89609375 157 148.8125 C157.391875 149.56144531 157.78375 150.31039062 158.1875 151.08203125 C159 153 159 153 159 156 C156.91929407 157.46489162 154.90179594 158.7034161 152.6875 159.9375 C151.29947903 160.73993918 149.91282241 161.54474173 148.52734375 162.3515625 C147.7885498 162.77985352 147.04975586 163.20814453 146.28857422 163.64941406 C142.38821514 165.95118347 138.57136945 168.38258601 134.75 170.8125 C133.9573877 171.31475098 133.16477539 171.81700195 132.34814453 172.33447266 C129.06167741 174.41781679 125.77779968 176.50521571 122.49462891 178.59375 C113.09247004 184.57244599 103.6955319 190.50393002 94 196 C93.5153125 195.030625 93.030625 194.06125 92.53125 193.0625 C92.21188477 192.4238501 91.89251953 191.7852002 91.56347656 191.12719727 C90.84121214 189.68250261 90.11921627 188.23767367 89.39746094 186.79272461 C87.64078329 183.27671688 85.88177571 179.76201785 84.109375 176.25390625 C78.43490222 165.0025376 73.00017721 153.63822687 67.56445312 142.27001953 C65.04831168 137.01078131 62.52394515 131.75549646 60 126.5 C56.93757513 120.12292101 53.877188 113.74489344 50.82421875 107.36328125 C46.23255837 97.77086592 41.62464981 88.19488486 36.8359375 78.69921875 C30.95089982 66.92578819 25.38862514 54.98459366 19.8125 43.0625 C17.28796372 37.66647144 14.68217621 32.31937791 12 27 C9.09816605 21.24028836 6.26519081 15.45165205 3.5 9.625 C3.149375 8.8928125 2.79875 8.160625 2.4375 7.40625 C0 2.23639113 0 2.23639113 0 0 Z " fill="#050608" transform="translate(367,312)"/>
<path d="M0 0 C0.99 0.33 1.98 0.66 3 1 C2.67 1.99 2.34 2.98 2 4 C2.99 4.33 3.98 4.66 5 5 C-1.0546875 5.1953125 -1.0546875 5.1953125 -3 5 C-3.66 4.34 -4.32 3.68 -5 3 C-2.6875 1.4375 -2.6875 1.4375 0 0 Z " fill="#171718" transform="translate(617,365)"/>
</svg>
